<svg width="100" height="100" viewBox="0 0 100 100" fill="none" xmlns="http://www.w3.org/2000/svg">
<path d="M45.9542 10.5832C47.1919 9.89584 48.5843 9.53516 50 9.53516C51.4157 9.53516 52.8081 9.89584 54.0458 10.5832L85.3583 27.9749C86.0075 28.3359 86.5484 28.8638 86.9249 29.5041C87.3015 30.1444 87.5 30.8737 87.5 31.6165V65.929C87.4996 67.4151 87.1019 68.874 86.3481 70.1546C85.5942 71.4352 84.5116 72.4909 83.2125 73.2124L54.0458 89.4207C52.8081 90.1081 51.4157 90.4687 50 90.4687C48.5843 90.4687 47.1919 90.1081 45.9542 89.4207L16.7875 73.2124C15.489 72.4913 14.4068 71.4362 13.653 70.1564C12.8992 68.8766 12.5011 67.4185 12.5 65.9332V31.6165C12.5 30.8737 12.6985 30.1444 13.0751 29.5041C13.4516 28.8638 13.9925 28.3359 14.6417 27.9749L45.9583 10.5832H45.9542Z" stroke="#B85C38" stroke-width="7.62667" stroke-linecap="round" stroke-linejoin="round"/>
<path d="M50 49.9998V91.6665M12.5 29.1665L50 49.9998L12.5 29.1665ZM50 49.9998L87.5 29.1665L50 49.9998Z" stroke="#B85C38" stroke-width="7.62667" stroke-linejoin="round"/>
<path d="M31.25 39.5833L68.75 18.75" stroke="#B85C38" stroke-width="7.62667" stroke-linecap="round" stroke-linejoin="round"/>
<path d="M25 51.3667L37.5 58.3334" stroke="#B85C38" stroke-width="7.62667" stroke-linecap="round" stroke-linejoin="round"/>
</svg>
