<svg width="100" height="100" viewBox="0 0 100 100" fill="none" xmlns="http://www.w3.org/2000/svg">
<path d="M56.25 59.375C56.25 58.5462 56.5792 57.7513 57.1653 57.1653C57.7513 56.5792 58.5462 56.25 59.375 56.25H71.875C72.7038 56.25 73.4987 56.5792 74.0847 57.1653C74.6708 57.7513 75 58.5462 75 59.375V71.875C75 72.7038 74.6708 73.4987 74.0847 74.0847C73.4987 74.6708 72.7038 75 71.875 75H59.375C58.5462 75 57.7513 74.6708 57.1653 74.0847C56.5792 73.4987 56.25 72.7038 56.25 71.875V59.375ZM62.5 68.75H68.75V62.5H62.5V68.75Z" fill="#B85C38"/>
<path d="M26.175 6.9375L10.55 19.4375C9.5125 20.2625 9.375 21.6875 9.375 22.9375V34.375C9.375 37.8937 10.5375 41.1375 12.5 43.75V90.625C12.5 91.4538 12.8292 92.2487 13.4153 92.8347C14.0013 93.4208 14.7962 93.75 15.625 93.75H84.375C85.2038 93.75 85.9987 93.4208 86.5847 92.8347C87.1708 92.2487 87.5 91.4538 87.5 90.625V43.75C89.4625 41.1375 90.625 37.8937 90.625 34.375V22.9125C90.625 21.6625 90.4875 20.2625 89.45 19.4375L73.825 6.9375C73.2718 6.49371 72.5842 6.25126 71.875 6.25H28.125C27.4158 6.25126 26.7282 6.49371 26.175 6.9375ZM34.375 25V34.375C34.375 36.8614 33.3873 39.246 31.6291 41.0041C29.871 42.7623 27.4864 43.75 25 43.75C22.5136 43.75 20.129 42.7623 18.3709 41.0041C16.6127 39.246 15.625 36.8614 15.625 34.375V25H34.375ZM59.375 25V34.375C59.375 36.8614 58.3873 39.246 56.6291 41.0041C54.871 42.7623 52.4864 43.75 50 43.75C47.5136 43.75 45.129 42.7623 43.3709 41.0041C41.6127 39.246 40.625 36.8614 40.625 34.375V25H59.375ZM84.375 25V34.375C84.375 36.8614 83.3873 39.246 81.6291 41.0041C79.871 42.7623 77.4864 43.75 75 43.75C72.5136 43.75 70.129 42.7623 68.3709 41.0041C66.6127 39.246 65.625 36.8614 65.625 34.375V25H84.375ZM37.6812 12.5L35.3375 18.75H21.4062L29.2188 12.5H37.6875H37.6812ZM42.0125 18.75L44.3563 12.5H55.5625L57.6437 18.75H42.0125ZM62.15 12.5H70.775L78.5875 18.75H64.2313L62.15 12.5ZM81.25 48.7V87.5H50V59.375C50 58.5462 49.6708 57.7513 49.0847 57.1653C48.4987 56.5792 47.7038 56.25 46.875 56.25H28.125C27.2962 56.25 26.5013 56.5792 25.9153 57.1653C25.3292 57.7513 25 58.5462 25 59.375V87.5H18.75V48.7C21.9753 50.1119 25.5834 50.3911 28.9876 49.4924C32.3918 48.5937 35.3918 46.5699 37.5 43.75C40.35 47.5438 44.8875 50 50 50C55.1125 50 59.65 47.5438 62.5 43.75C64.6082 46.5699 67.6082 48.5937 71.0124 49.4924C74.4166 50.3911 78.0247 50.1119 81.25 48.7ZM43.75 87.5H31.25V62.5H43.75V87.5Z" fill="#B85C38"/>
</svg>
