<svg width="100" height="100" viewBox="0 0 100 100" fill="none" xmlns="http://www.w3.org/2000/svg">
<path d="M73.9584 88.1666L62.5 75.6666L67.3334 70.8333L73.9584 77.4583L88.9167 62.4999L93.75 68.3749L73.9584 88.1666ZM54.1667 75.8749C52.0834 77.9166 49.0834 79.1666 45.8334 79.1666C38.9584 79.1666 33.3334 73.5416 33.3334 66.6666V54.1666H58.3334V61.2083C60.4167 57.9999 63.3334 55.2916 66.6667 53.3749V45.8333H25V66.6666C25 73.4999 28.375 79.5416 33.4584 83.3333H16.6667V16.6666H25V24.9999C25 27.2916 26.875 29.1666 29.1667 29.1666H62.5C64.7917 29.1666 66.6667 27.2916 66.6667 24.9999V16.6666H75V8.33325H16.6667C12.0834 8.33325 8.33337 12.0833 8.33337 16.6666V83.3333C8.33337 87.9166 12.0834 91.6666 16.6667 91.6666H60.5834C56.7917 87.4999 54.4167 81.9583 54.1667 75.8749ZM41.6667 37.4999C41.6667 39.7916 43.5417 41.6666 45.8334 41.6666C48.125 41.6666 50 39.7916 50 37.4999C50 35.2083 48.125 33.3333 45.8334 33.3333C43.5417 33.3333 41.6667 35.2083 41.6667 37.4999Z" fill="#B85C38"/>
</svg>
